<?xml version="1.0" encoding="UTF-8"?>
<svg width="48px" height="48px" viewBox="0 0 48 48" version="1.1" xmlns="http://www.w3.org/2000/svg" xmlns:xlink="http://www.w3.org/1999/xlink">
    <!-- Generator: Sketch 51.3 (57544) - http://www.bohemiancoding.com/sketch -->
    <title>zhifubao</title>
    <desc>Created with Sketch.</desc>
    <defs>
        <polygon id="path-1" points="0 0 20 0 20 20 0 20"></polygon>
    </defs>
    <g id="Page-1" stroke="none" stroke-width="1" fill="none" fill-rule="evenodd">
        <g id="更多登录方式-2" transform="translate(-166.000000, -568.000000)">
            <g id="弹层" transform="translate(0.000000, 510.000000)">
                <g id="更多" transform="translate(78.000000, 58.000000)">
                    <g id="zhifubao" transform="translate(88.000000, 0.000000)">
                        <g id="Group-4">
                            <circle id="base-copy-2" stroke="#F0F7FA" stroke-width="2" fill="#F7F9FA" cx="24" cy="24" r="23"></circle>
                            <g id="支付宝" transform="translate(14.000000, 14.000000)">
                                <mask id="mask-2" fill="white">
                                    <use xlink:href="#path-1"></use>
                                </mask>
                                <g id="Clip-5"></g>
                                <path d="M4.79599407,15.4916254 C3.28662695,15.4916254 0.785768856,14.9703234 0.785768856,13.108026 C0.788675318,11.4867951 3.00226427,10.6644402 4.79599407,10.6644402 C6.70617609,10.6644402 8.14794721,11.4597578 9.6329554,12.0654499 C8.06900217,13.9916843 6.50277913,15.4916254 4.79599407,15.4916254 M14.296055,7.54567767 L14.3638447,7.2908824 C14.4316622,7.03020335 14.4940265,6.67120931 14.5506887,6.40220894 L10.2427864,6.40220894 L10.2427864,5.29987056 L15.658881,5.29987056 L15.658881,4.20826305 L10.2452777,4.20826305 L10.2452777,2 L8.06878073,2 L8.06878073,4.20826305 L2.65789007,4.20826305 L2.65789007,5.29987056 L8.06878073,5.29987056 L8.06878073,6.40220894 L3.74197263,6.40220894 L3.74197263,7.49401256 L11.8221024,7.49401256 C11.6325457,8.48374678 11.269238,9.47902856 10.7951249,10.3436346 C10.4191671,10.2171335 6.99098166,9.19643948 4.755442,9.19643948 C2.96710993,9.19643948 0,10.5820954 0,13.108026 C0,15.5983178 1.70711723,17 4.755442,17 C7.68191683,17 9.83635236,15.5188589 11.5781811,12.8940529 C14.8947584,14.3556935 17.9755248,15.9692475 20,16.8930555 L20,13.4371249 C18.4906329,13.0833982 15.5995339,12.021882 12.8463949,11.0512 C13.4420811,10.008736 13.9382557,8.83747345 14.296055,7.54567767" id="Fill-4" fill="#00ACF4" mask="url(#mask-2)"></path>
                            </g>
                        </g>
                    </g>
                </g>
            </g>
        </g>
    </g>
</svg>