<?xml version="1.0" encoding="UTF-8"?>
<svg width="48px" height="48px" viewBox="0 0 48 48" version="1.1" xmlns="http://www.w3.org/2000/svg" xmlns:xlink="http://www.w3.org/1999/xlink">
    <!-- Generator: Sketch 51.3 (57544) - http://www.bohemiancoding.com/sketch -->
    <title>baidu</title>
    <desc>Created with Sketch.</desc>
    <defs>
        <polygon id="path-1" points="0 0 20 0 20 20 0 20"></polygon>
    </defs>
    <g id="Page-1" stroke="none" stroke-width="1" fill="none" fill-rule="evenodd">
        <g id="更多登录方式-2" transform="translate(-254.000000, -568.000000)">
            <g id="弹层" transform="translate(0.000000, 510.000000)">
                <g id="更多" transform="translate(78.000000, 58.000000)">
                    <g id="baidu" transform="translate(176.000000, 0.000000)">
                        <g id="Group-5">
                            <circle id="base-copy-5" stroke="#F0F0FA" stroke-width="2" fill="#F7F7FA" cx="24" cy="24" r="23"></circle>
                            <g id="Group-3-Copy" transform="translate(14.000000, 14.000000)">
                                <mask id="mask-2" fill="white">
                                    <use xlink:href="#path-1"></use>
                                </mask>
                                <g id="Clip-2"></g>
                                <path d="M9.64864863,8.31335745 C10.0746476,8.2620202 10.5115414,8.33587429 10.9035046,8.51410656 C11.5104946,8.79018626 11.9886506,9.29719842 12.3573625,9.85486636 C12.8330361,10.590795 13.407397,11.2523016 14.0063331,11.8833125 C14.5221932,12.4130403 15.0548506,12.9266967 15.6153379,13.4063934 C15.7419102,13.5190911 15.8787429,13.61992 15.9958823,13.7436916 C16.3939686,14.161971 16.6523262,14.7134489 16.744118,15.2895449 C16.8613402,16.0028431 16.7181637,16.7367557 16.449987,17.3972401 C16.2655483,17.8816502 15.9208877,18.3004691 15.4824769,18.5605627 C15.0161811,18.8429459 14.4735943,18.9551894 13.9394199,18.9910232 C13.1863022,19.034836 12.4325501,18.9146988 11.7082001,18.70864 C10.7852068,18.4092768 9.79182512,18.3416127 8.83907121,18.5154154 C8.36618334,18.6173517 7.89150266,18.7166188 7.40989898,18.7618796 C6.82249199,18.8258808 6.22978931,18.832298 5.64023094,18.7985937 C5.21961035,18.7902741 4.79846571,18.6684901 4.44398598,18.432901 C4.0530157,18.195523 3.74961724,17.8296315 3.53078421,17.4243284 C3.34827624,17.0774896 3.22653072,16.6990478 3.14819875,16.3137344 C3.03538969,15.7520629 3.07008744,15.1566586 3.27146127,14.6201446 C3.55210484,13.855282 4.10406938,13.2303475 4.71980276,12.7298945 C4.87279833,12.5985699 5.04066042,12.4871215 5.19202867,12.3538093 C5.50428085,12.0382613 5.84827954,11.7586323 6.15945603,11.4419768 C6.64395579,10.9567149 7.09582642,10.4297414 7.44534144,9.83169645 C7.90388684,9.01657559 8.73445391,8.4215121 9.64864863,8.31335745 M15.6836301,6.48202591 C16.0577204,6.45385857 16.4438639,6.50931302 16.7818498,6.68166763 C17.1353366,6.85890608 17.4199795,7.1591779 17.6245804,7.50101926 C17.8498675,7.89896815 17.997264,8.35328012 17.996409,8.81713264 C18.0076071,9.31060062 17.9990016,9.81139438 17.8760425,10.2916589 C17.7792033,10.6521271 17.6176849,11.0060645 17.3515769,11.2674926 C17.0411727,11.5673101 16.6126913,11.7124628 16.1916294,11.7209244 C15.7682231,11.7339007 15.3284057,11.7007359 14.9405521,11.510294 C14.5618281,11.343817 14.2674764,11.0069447 14.1172942,10.6155266 C13.9440537,10.1687675 13.9089146,9.68106363 13.9109832,9.20446199 C13.9107626,8.65153593 13.9705597,8.08642863 14.1861381,7.57487335 C14.3209297,7.25711052 14.5294196,6.96495953 14.8142832,6.7741769 C15.0681174,6.5899534 15.3780803,6.50885871 15.6836301,6.48202591 M3.66825129,5.15591767 C3.9813585,5.09069551 4.31051824,5.14725735 4.60291161,5.27259066 C5.21100487,5.56386142 5.67244634,6.12309106 5.92393608,6.75620318 C6.0274777,7.01266229 6.05395611,7.29183699 6.06744355,7.56644018 C6.09458392,8.06601298 6.05613506,8.57367821 5.91185531,9.05294894 C5.7872137,9.45757054 5.56234028,9.83890865 5.23050511,10.0978949 C4.89811831,10.352991 4.48839248,10.4919821 4.07596365,10.5142718 C3.62409302,10.5415589 3.15961756,10.3779498 2.83241612,10.0530883 C2.51445453,9.75537204 2.30017248,9.35685526 2.16430513,8.94093265 C2.02769308,8.52322119 1.96122124,8.07390665 2.02350067,7.63509808 C2.09212388,7.10647771 2.23359031,6.58240046 2.4843905,6.11355051 C2.61110073,5.88276003 2.76969538,5.66900625 2.96591144,5.49619734 C3.16780932,5.32560319 3.4114107,5.20626112 3.66825129,5.15591767 M12.8030824,1.43002004 C13.1139003,1.35647829 13.4303449,1.47505371 13.6960392,1.63656162 C13.971856,1.81300503 14.21212,2.04859418 14.398186,2.32257269 C14.6910207,2.73116951 14.8767557,3.22318938 14.9176042,3.72974722 C14.9441102,4.18684185 14.8201029,4.63726377 14.6554679,5.05730358 C14.4657335,5.51550559 14.2008943,5.952071 13.8299483,6.27784108 C13.5827889,6.5047699 13.2770184,6.66536919 12.9493756,6.72093722 C12.6127964,6.77596575 12.263502,6.72093722 11.9473884,6.59648413 C11.5901229,6.45229687 11.2920202,6.16647786 11.1197174,5.81441447 C10.899726,5.36987021 10.8388532,4.86033095 10.8464933,4.36697654 C10.8549057,4.09257212 10.8685862,3.81405048 10.9473319,3.54983968 C11.0673674,3.12991345 11.2845731,2.74593465 11.539152,2.39798848 C11.7524963,2.1119423 12.0057788,1.85593751 12.2958278,1.6526329 C12.4508644,1.54981643 12.6220638,1.47073775 12.8030824,1.43002004 M7.72805364,1.02119606 C8.03294151,0.960062702 8.35046179,1.03638711 8.62208615,1.18312988 C9.02632322,1.42669788 9.33264534,1.81601484 9.52742715,2.25059264 C9.94277964,3.17207928 9.94760643,4.27023649 9.57999783,5.20881662 C9.40719862,5.61877638 9.15700521,6.00908715 8.79802968,6.26963507 C8.48536377,6.50675752 8.07756866,6.62189721 7.69291458,6.54534564 C7.36863679,6.48091853 7.07309911,6.30123814 6.8456606,6.05676152 C6.48354075,5.68743428 6.26222536,5.19694772 6.13488075,4.69450708 C5.96238494,3.96445614 6.00097171,3.18071121 6.25847425,2.47684 C6.42578471,2.02130706 6.69933979,1.59607106 7.08289061,1.30468672 C7.27436262,1.16359446 7.4937197,1.05734225 7.72805364,1.02119606" id="Fill-1" fill="#2023D3" mask="url(#mask-2)"></path>
                            </g>
                        </g>
                    </g>
                </g>
            </g>
        </g>
    </g>
</svg>