<?xml version="1.0" standalone="no"?><!DOCTYPE svg PUBLIC "-//W3C//DTD SVG 1.1//EN" "http://www.w3.org/Graphics/SVG/1.1/DTD/svg11.dtd"><svg class="icon" width="200px" height="200.00px" viewBox="0 0 1024 1024" version="1.1" xmlns="http://www.w3.org/2000/svg"><path fill="#333333" d="M927.31137904 96.69527301c-126.78252103-126.76307899-332.33403799-126.76307899-459.11655902 0-99.95450302 99.95552607-121.08168305 248.851695-63.42656504 369.51382206L1.62859198 869.31396506l7.52437 145.53972396 145.50186205 7.52437008 58.50650897-58.51162508c-0.08084099-0.07981794-76.47883508-76.54228003-51.01693103-102.03897809 25.47725402-25.46088198 101.84557296 50.82557202 102.03590802 51.01590708L315.19928697 861.81927105c-0.284479-0.28345599-76.47678902-76.555583-51.01488402-102.00009205 25.474185-25.51 102.00623201 51.00362804 102.00623205 51.003628l-4.26411696 4.26514003 55.27388395-55.27900101c-0.444115-0.44513802-76.44609001-76.57707302-51.00976699-102.01237204 25.51-25.51102399 102.00520799 51.00260403 102.00520787 51.00260401L449.64227898 727.36604596l108.14913901-108.15425491c120.67235998 57.64283798 269.57159797 36.51463504 369.51996098-63.43577504C1054.057061 429.00986698 1054.057061 223.47677101 927.31137904 96.69527301zM774.24728399 402.74773701c-42.24719602 42.26663891-110.776989 42.26663891-152.98939299 0-42.284035-42.24924297-42.284035-110.759593 0-153.02623194 42.21240399-42.24822001 110.74219701-42.24822001 152.98939301 0C816.53439003 291.988144 816.53439003 360.49849399 774.24728399 402.74773701z" /></svg>