<svg height="48" viewBox="0 0 48 48" width="48" xmlns="http://www.w3.org/2000/svg"><g fill="none" fill-rule="evenodd"><circle cx="24" cy="24" fill="#f7f8fa" r="23" stroke="#f0f2fa" stroke-width="2"/><path d="m1.99201702 0c-1.10016062 0-1.99201702.89821238-1.99201702 1.99079514v16.01840976c0 1.0994858.90017617 1.9907951 1.99201702 1.9907951h7.01596596c1.10016062 0 1.99201702-.8982124 1.99201702-1.9907951v-16.01840976c0-1.0994858-.9001762-1.99079514-1.99201702-1.99079514zm3.00798298 18.2523422c0-.1393647.10701752-.2523422.25234222-.2523422h.49531556c.13936476 0 .25234222.1070175.25234222.2523422v.4953156c0 .1393647-.10701752.2523422-.25234222.2523422h-.49531556c-.13936476 0-.25234222-.1070175-.25234222-.2523422zm1.50461102-17.2523422c.27359578 0 .49538898.23193359.49538898.5 0 .27614237-.2157526.5-.49538898.5h-2.00922204c-.27359578 0-.49538898-.23193359-.49538898-.5 0-.27614237.2157526-.5.49538898-.5zm-5.50461102 16v-14h9v14z" fill="#61708f" transform="translate(19 14)"/></g></svg>