<svg height="48" viewBox="0 0 48 48" width="48" xmlns="http://www.w3.org/2000/svg"><g fill="none" fill-rule="evenodd"><circle cx="24" cy="24" fill="#ebf9ff" r="23" stroke="#dcedf5" stroke-width="2"/><path d="m32.9939024 27.3578448c-.4165102-2.4363608-2.1661105-4.0323903-2.1661105-4.0323903.2500348-2.2117837-.6665449-2.6042937-.6665449-2.6042937-.1928289-6.8432681-6.0381134-6.7239824-6.1615239-6.7206504-.1227676-.003332-5.9693377-.1226177-6.160881 6.7206504 0 0-.9165797.39251-.666545 2.6042937 0 0-1.7496002 1.5960295-2.1661105 4.0323903 0 0-.2223959 4.1163567 1.9996349.5037988 0 0 .4994267 1.372119 1.4160064 2.6042937 0 0-1.6384023.560443-1.4995655 2.0165284 0 0-.0559204 1.6233519 3.4985577 1.512063 0 0 2.4990616-.1959218 3.2491657-1.2601636h.3271663.0057849.3271662c.7501041 1.0642418 3.2491657 1.2601636 3.2491657 1.2601636 3.5531926.1112889 3.4985578-1.512063 3.4985578-1.512063.1381939-1.4560854-1.4995656-2.0165284-1.4995656-2.0165284.9165797-1.2321747 1.4160064-2.6042937 1.4160064-2.6042937 2.2207453 3.6125579 1.9996349-.5037988 1.9996349-.5037988z" fill="#00acf4"/></g></svg>