<?xml version="1.0" encoding="UTF-8"?>
<svg width="48px" height="48px" viewBox="0 0 48 48" version="1.1" xmlns="http://www.w3.org/2000/svg" xmlns:xlink="http://www.w3.org/1999/xlink">
    <!-- Generator: Sketch 51.3 (57544) - http://www.bohemiancoding.com/sketch -->
    <title>weibo</title>
    <desc>Created with Sketch.</desc>
    <defs>
        <polygon id="path-1" points="0 0 20 0 20 20 0 20"></polygon>
    </defs>
    <g id="Page-1" stroke="none" stroke-width="1" fill="none" fill-rule="evenodd">
        <g id="更多登录方式-2" transform="translate(-78.000000, -568.000000)">
            <g id="弹层" transform="translate(0.000000, 510.000000)">
                <g id="更多" transform="translate(78.000000, 58.000000)">
                    <g id="weibo">
                        <g id="Group-2">
                            <circle id="base" stroke="#FAF0F1" stroke-width="2" fill="#FAF7F8" cx="24" cy="24" r="23"></circle>
                            <g id="微博" transform="translate(14.000000, 14.000000)">
                                <mask id="mask-2" fill="white">
                                    <use xlink:href="#path-1"></use>
                                </mask>
                                <g id="Clip-2"></g>
                                <path d="M15.0257181,9.18476695 C14.7446024,9.09525889 14.5532859,9.03563054 14.6981532,8.64793703 C15.0170141,7.80403201 15.0518511,7.07931817 14.7039699,6.56048596 C14.0547418,5.58528935 12.2808601,5.63895487 10.2432069,6.5306281 C10.2432069,6.5306281 9.60559112,6.82881355 9.7678663,6.29506334 C10.0809105,5.23940122 10.0345674,4.35369082 9.54470608,3.84372642 C8.44329831,2.68064589 5.50421539,3.88546627 2.98542603,6.52763576 C1.09561223,8.50782132 0,10.6072199 0,12.4233292 C0,15.8915807 4.2405112,18 8.39113843,18 C13.8258073,18 17.4488279,14.6837898 17.4488279,12.0505755 C17.4488279,10.4611632 16.1734902,9.55752061 15.0228097,9.18773744 M8.40555299,16.7563884 C5.0926682,17.0993716 2.23470164,15.5277822 2.02024535,13.2493894 C1.80572537,10.9681134 4.3158108,8.84178378 7.62589334,8.49886614 C10.9359971,8.15289064 13.7967447,9.72450184 14.0112859,12.0058652 C14.225721,14.2872285 11.7156355,16.4134926 8.40555299,16.7563884 M18.6343241,2.83576698 C17.3823172,1.36552398 15.4540362,0.709087885 13.5967454,1.12100405 C13.1789569,1.21896492 12.9154189,1.64435752 13.0054727,2.07531981 C13.0924908,2.50770183 13.5011508,2.7850938 13.9155851,2.69259341 C15.1880357,2.4093478 16.5648273,2.82381947 17.4980794,3.90933945 C18.4314164,4.99488128 18.686484,6.47397024 18.2836407,7.77417415 C18.1514472,8.19307971 18.3710409,8.64348128 18.7763892,8.78512593 C18.9708477,8.85038949 19.1826503,8.83247914 19.3640742,8.73545747 C19.5456041,8.63845765 19.6815977,8.47047169 19.7415911,8.26928606 L19.7415911,8.26629372 C20.3247755,6.38208142 19.9057557,4.32127746 18.6372325,2.83576698 M16.3242592,7.83679484 C16.6720554,7.95616076 17.0459634,7.75632932 17.1561212,7.3895385 C17.4401877,6.47158948 17.2356241,5.46753973 16.6169872,4.74437667 C16.0068206,4.02981931 15.068431,3.71140827 14.1648571,3.91233179 C13.8047905,3.99679437 13.5783186,4.36426229 13.6576092,4.73542149 C13.6917668,4.91321446 13.7938575,5.06951501 13.9409539,5.16935428 C14.0880715,5.26908434 14.2679456,5.30398768 14.4402622,5.26617937 C14.882082,5.16738851 15.341331,5.32266249 15.6401942,5.67180507 C15.9419657,6.02621154 16.0409782,6.51741376 15.9010785,6.96602429 C15.7881397,7.32735465 15.9778004,7.71496079 16.3271676,7.83679484 M8.73311788,10.2523766 C7.1563695,9.82294323 5.37669223,10.6460329 4.69262719,12.1013361 C3.99703474,13.5894021 4.66948747,15.238552 6.25784817,15.7782868 C7.90991737,16.3329398 9.85195474,15.4800796 10.5273371,13.87564 C11.1939518,12.3100353 10.3620261,10.6937356 8.7302095,10.2523766 M7.53027751,14.0456791 C7.21141654,14.5824435 6.52155595,14.8180082 6.00566778,14.570496 C5.49841984,14.3259542 5.34765083,13.7056883 5.6665118,13.1808059 C5.98535154,12.6619737 6.64619195,12.4293139 7.15925666,12.655989 C7.67805322,12.8855909 7.8433217,13.5058787 7.53027751,14.0456791 M8.58525725,12.6261311 C8.46932518,12.8349177 8.21143416,12.9332936 8.01141366,12.8468652 C7.81430153,12.76332 7.75052934,12.5307476 7.86646141,12.3249533 C7.98239349,12.1221514 8.22584872,12.0237755 8.42298207,12.104241 C8.62300258,12.1817798 8.6954787,12.4173664 8.58525725,12.6261311" id="Fill-1" fill="#E6152D" mask="url(#mask-2)"></path>
                            </g>
                        </g>
                    </g>
                </g>
            </g>
        </g>
    </g>
</svg>