<svg height="16" viewBox="0 0 16 16" width="16" xmlns="http://www.w3.org/2000/svg"><path d="m11.5 7.5v-3.13636364c0-2.21445114-1.4596237-3.86363636-3.5-3.86363636-2.06971963 0-3.5 1.54637455-3.5 3.72727273v3.27272727h-2.31818182c-.96022126 0-1.68181818.72159692-1.68181818 1.68181818v4.63636362c0 .9602213.72159692 1.6818182 1.68181818 1.6818182h11.63636362c.9602213 0 1.6818182-.7215969 1.6818182-1.6818182v-4.63636362c0-.96022126-.7215969-1.68181818-1.6818182-1.68181818zm-3.5-7c2.1113524 0 3.4090909 1.74267748 3.4087939 3.84640523l.1087447 3.15359477h-7.03507716l.01783556-.51723114.09061209-2.6191325c0-2.12095888 1.29773855-3.86363636 3.40909091-3.86363636z" fill="#f7f8fa" fill-rule="evenodd" stroke="#d3d6e0"/></svg>