<svg height="16" viewBox="0 0 16 16" width="16" xmlns="http://www.w3.org/2000/svg"><path d="m0 8s2.66666667-6 8-6c5.3333333 0 8 6 8 6s-2.6666667 6-8 6c-5.33333333 0-8-6-8-6zm1.53333333 0c.73333334 1.33333333 3 4.6666667 6.46666667 4.6666667 3.5333333 0 5.7333333-3.33333337 6.4666667-4.6666667-.7333334-1.33333333-2.9333334-4.66666667-6.4666667-4.66666667-3.53333333 0-5.73333333 3.33333334-6.46666667 4.66666667zm3.8 0c0-1.46666667 1.2-2.66666667 2.66666667-2.66666667s2.6666667 1.2 2.6666667 2.66666667-1.20000003 2.6666667-2.6666667 2.6666667-2.66666667-1.20000003-2.66666667-2.6666667zm1.33333334 0c0 .73333333.6 1.33333333 1.33333333 1.33333333s1.33333333-.6 1.33333333-1.33333333-.6-1.33333333-1.33333333-1.33333333-1.33333333.6-1.33333333 1.33333333z" fill="#a1a6bb" fill-rule="evenodd"/></svg>