<?xml version="1.0" standalone="no"?><!DOCTYPE svg PUBLIC "-//W3C//DTD SVG 1.1//EN" "http://www.w3.org/Graphics/SVG/1.1/DTD/svg11.dtd"><svg class="icon" width="200px" height="150.04px" viewBox="0 0 1365 1024" version="1.1" xmlns="http://www.w3.org/2000/svg"><path fill="#ffffff" d="M1339.962271 0H25.344325A25.428804 25.428804 0 0 0 0.000853 25.599467v50.942938c0 13.994375 11.263765 25.599467 25.343472 25.599467h1314.617946a25.428804 25.428804 0 0 0 25.343472-25.599467V25.599467a25.599467 25.599467 0 0 0-25.343472-25.599467zM709.959396 271.098352A24.746151 24.746151 0 0 0 682.653298 265.722464a24.746151 24.746151 0 0 0-27.476761 5.375888L9.813982 945.644299a25.343472 25.343472 0 0 0 0 35.497927l35.412596 35.497927c9.642466 9.813129 25.599467 9.813129 35.327264 0L682.653298 387.234599l602.184788 629.405554c9.727797 9.813129 25.599467 9.813129 35.327264 0l35.327264-35.497927a25.343472 25.343472 0 0 0 0-35.497927L709.959396 271.098352z" /></svg>