<svg height="16" viewBox="0 0 16 16" width="16" xmlns="http://www.w3.org/2000/svg"><path d="m11.4622697 2.91640997-.9926109.99261093c-.73265845-.35311874-1.55664486-.57568757-2.4696588-.57568757-3.53333333 0-5.73333333 3.33333334-6.46666667 4.66666667.35516363.64575204 1.06998604 1.76062424 2.10660033 2.738746l-.96228331.9622833c-1.78510023-1.6927915-2.67765035-3.7010293-2.67765035-3.7010293s2.66666667-6 8-6c1.31659931 0 2.4706892.36564618 3.4622697.91640997zm2.3574076 1.88523309c1.4535485 1.5631149 2.1803227 3.19835694 2.1803227 3.19835694s-2.6666667 6-8 6c-1.03061725 0-1.96165588-.2240519-2.7931159-.5855638l1.04042076-1.0404207c.54409175.1847465 1.1289706.2926512 1.75269514.2926512 3.5333333 0 5.7333333-3.33333337 6.4666667-4.6666667-.2964861-.53906551-.8327102-1.40504659-1.5998609-2.24548542zm-4.92841662.68577592-1.2207001 1.22070009c-.46991541.12056476-.84187675.4925261-.96244127.96244128l-1.22070033 1.22070033c-.09972403-.27900708-.15408565-.5790937-.15408565-.89126068 0-1.46666667 1.2-2.66666667 2.66666667-2.66666667.31216698 0 .6122536.05436162.89126068.15408565zm1.77502952 2.46761116c.0002506.01496133.0003765.02995161.0003765.04496986 0 1.46666667-1.20000003 2.6666667-2.6666667 2.6666667-.01501818 0-.03000839-.0001259-.04496965-.0003765l2.71126365-2.7112639zm3.490564-5.61188439c.1952622.19526215.1952622.51184464 0 .70710678l-10.60660167 10.60660167c-.19526214.1952622-.51184463.1952622-.70710678 0-.19526215-.1952621-.19526215-.5118446 0-.7071067l10.60660175-10.60660175c.1952621-.19526215.5118446-.19526215.7071067 0z" fill="#a1a6bb" fill-rule="evenodd"/></svg>