<svg height="16" viewBox="0 0 16 16" width="16" xmlns="http://www.w3.org/2000/svg"><path d="m11.5 6.26086957v-2.08695653c0-2.02415825-1.58101501-3.67391304-3.5-3.67391304s-3.5 1.64975479-3.5 3.67391304v2.08695653c0 1.00877988.38438423 1.93932397 1.0609941 2.64535166l.66116242.68990861-.94374384.14985725c-2.86544928.45500521-4.77841268 1.65268661-4.77841268 2.77575201v1.3913044c0 .9111148.64768167 1.5869565 1.5 1.5869565h12c.8523183 0 1.5-.6758417 1.5-1.5869565v-1.3913044c0-1.1071555-1.9491665-2.3165091-4.7801109-2.77602467l-.93928632-.15246386.65840312-.68702934c.6766099-.70602769 1.0609941-1.63657178 1.0609941-2.64535166z" fill="#f7f8fa" fill-rule="evenodd" stroke="#d3d6e0"/></svg>